<?xml version="1.0" standalone="no"?>
<!DOCTYPE svg PUBLIC "-//W3C//DTD SVG 20010904//EN"
 "http://www.w3.org/TR/2001/REC-SVG-20010904/DTD/svg10.dtd">
<svg version="1.0" xmlns="http://www.w3.org/2000/svg"
 width="512.000000pt" height="512.000000pt" viewBox="0 0 512.000000 512.000000"
 preserveAspectRatio="xMidYMid meet">

<g transform="translate(0.000000,512.000000) scale(0.100000,-0.100000)"
fill="rgb(55, 173, 84)" stroke="none">
<path d="M1538 5110 c-418 -76 -697 -486 -612 -898 60 -290 294 -527 580 -585
l69 -14 -120 -6 c-312 -17 -573 -133 -791 -351 -170 -170 -279 -370 -330 -606
-25 -116 -26 -378 0 -505 61 -307 202 -577 413 -789 270 -273 646 -436 1008
-440 123 -1 133 0 187 27 107 53 163 144 163 267 0 122 -56 215 -160 266 -43
21 -78 28 -169 35 -147 12 -249 38 -361 94 -288 142 -479 427 -502 746 -5 70
-3 92 12 122 48 102 192 115 257 25 15 -22 23 -54 29 -113 15 -171 65 -281
179 -395 44 -44 100 -89 137 -108 72 -38 196 -72 263 -72 46 0 47 0 71 52 31
68 120 158 189 193 87 44 143 55 295 55 l140 1 -74 19 c-104 28 -194 81 -276
164 -150 152 -207 357 -155 560 28 109 74 190 155 272 155 157 363 217 569
164 112 -28 190 -73 276 -160 87 -86 132 -164 160 -276 25 -98 25 -190 0 -288
-28 -112 -73 -190 -160 -276 -85 -85 -163 -131 -272 -160 l-73 -19 140 -1 c84
0 160 -6 191 -14 127 -34 238 -123 292 -234 26 -52 27 -52 72 -52 66 0 191 34
263 72 38 19 92 62 137 108 114 114 164 224 179 395 6 59 14 91 29 113 65 90
209 77 257 -25 15 -30 17 -52 12 -122 -23 -319 -216 -607 -502 -746 -113 -56
-215 -82 -361 -94 -91 -7 -126 -14 -169 -35 -104 -51 -160 -144 -160 -266 0
-123 56 -214 163 -267 53 -26 66 -28 177 -28 610 2 1180 424 1374 1015 163
501 71 971 -258 1314 -212 220 -491 346 -806 363 l-120 6 68 14 c230 47 434
212 533 432 45 99 58 168 58 301 0 146 -15 213 -75 336 -93 190 -259 330 -469
395 -108 34 -293 34 -400 0 -281 -87 -476 -301 -534 -583 -82 -397 182 -798
580 -881 67 -14 61 -15 -236 -19 -337 -4 -350 -6 -463 -78 l-47 -30 -47 30
c-112 71 -127 74 -463 80 -199 3 -288 8 -255 13 226 35 450 212 551 436 45 99
58 168 58 301 0 146 -15 213 -75 336 -92 189 -260 330 -464 394 -79 24 -249
35 -327 20z"/>
<path d="M2463 2992 c-251 -90 -272 -432 -35 -549 81 -40 183 -40 264 0 107
53 163 144 163 267 0 85 -21 142 -74 203 -72 81 -213 117 -318 79z"/>
<path d="M2187 1789 c-21 -11 -43 -31 -49 -45 -10 -22 -9 -27 13 -41 51 -34
155 -151 187 -210 90 -171 93 -374 8 -548 -40 -81 -126 -180 -191 -222 l-45
-28 0 -347 0 -348 450 0 450 0 0 348 -1 347 -50 34 c-109 75 -194 198 -229
337 -36 141 -17 296 52 427 32 60 138 178 188 209 22 14 23 18 13 41 -7 14
-30 35 -52 47 -38 19 -57 20 -373 20 -313 -1 -335 -2 -371 -21z"/>
<path d="M610 595 c0 -457 1 -477 20 -515 13 -26 34 -47 60 -60 38 -19 58 -20
580 -20 l540 0 0 305 0 305 -47 0 c-71 0 -215 18 -323 40 -263 54 -529 180
-752 358 l-78 62 0 -475z"/>
<path d="M4440 1009 c-288 -232 -647 -371 -1024 -395 l-106 -7 0 -303 0 -304
540 0 c522 0 542 1 580 20 26 13 47 34 60 60 20 38 20 55 18 510 l-3 471 -65
-52z"/>
</g>
</svg>
