<?xml version="1.0" standalone="no"?>
<!DOCTYPE svg PUBLIC "-//W3C//DTD SVG 20010904//EN"
 "http://www.w3.org/TR/2001/REC-SVG-20010904/DTD/svg10.dtd">
<svg version="1.0" xmlns="http://www.w3.org/2000/svg"
 width="512.000000pt" height="512.000000pt" viewBox="0 0 512.000000 512.000000"
 preserveAspectRatio="xMidYMid meet">

<g transform="translate(0.000000,512.000000) scale(0.100000,-0.100000)"
fill="rgb(239, 126, 119)" stroke="none">
<path d="M2488 5099 c-23 -12 -46 -35 -58 -59 -19 -38 -20 -58 -20 -587 l0
-548 -593 -593 -592 -592 -613 0 -612 0 0 -1300 c0 -1284 0 -1301 20 -1340 13
-26 34 -47 60 -60 38 -20 57 -20 945 -20 l905 0 0 819 0 818 23 33 c12 18 35
43 50 54 28 21 36 21 557 21 521 0 529 0 557 -21 15 -11 38 -36 51 -54 l22
-33 0 -818 0 -819 905 0 c888 0 907 0 945 20 26 13 47 34 60 60 20 39 20 56
20 1340 l0 1300 -613 0 -612 0 -593 593 -592 592 0 213 0 212 428 0 c408 0
428 1 460 20 18 11 41 34 52 52 19 31 20 51 20 324 0 286 0 292 -23 325 -47
71 -33 69 -607 69 -493 -1 -517 -2 -552 -21z m185 -2084 c87 -23 155 -61 218
-124 185 -185 185 -477 0 -662 -185 -185 -477 -185 -662 0 -185 185 -185 477
0 662 118 118 287 165 444 124z m-1813 -807 c74 -39 80 -60 80 -293 0 -182 -2
-203 -20 -233 -61 -100 -204 -95 -257 8 -21 41 -23 57 -23 220 0 188 7 229 42
268 50 54 110 64 178 30z m662 -9 c53 -38 62 -69 66 -237 6 -215 0 -255 -48
-306 -38 -40 -40 -41 -105 -41 -65 0 -67 1 -106 42 l-39 42 0 211 c0 167 3
217 15 240 16 30 57 64 90 73 34 9 96 -3 127 -24z m2250 0 c56 -40 59 -59 56
-294 -3 -212 -3 -214 -28 -240 -40 -42 -78 -58 -130 -53 -52 5 -89 28 -117 73
-16 26 -18 54 -18 230 0 171 3 205 17 232 19 33 60 67 93 76 34 9 96 -3 127
-24z m637 4 c63 -48 66 -57 69 -271 3 -189 2 -199 -20 -241 -54 -104 -197
-109 -258 -9 -18 30 -20 51 -20 233 0 233 6 254 81 293 51 27 107 25 148 -5z
m-3541 -963 c67 -41 72 -62 72 -285 0 -234 -6 -254 -83 -293 -36 -19 -54 -23
-87 -17 -53 9 -106 55 -120 103 -5 20 -10 116 -10 212 0 199 12 243 72 280 43
26 113 26 156 0z m638 4 c18 -9 44 -33 56 -53 22 -34 23 -46 23 -236 0 -223
-6 -247 -68 -285 -51 -31 -89 -34 -141 -12 -81 36 -86 53 -86 299 l0 212 32
37 c18 20 41 40 52 44 34 14 96 11 132 -6z m2247 1 c18 -8 42 -30 55 -48 21
-32 22 -42 22 -243 0 -243 -5 -260 -86 -296 -52 -22 -90 -19 -141 12 -62 37
-68 63 -68 275 0 105 3 202 7 216 9 29 53 77 83 90 32 13 95 10 128 -6z m655
-5 c60 -37 72 -81 72 -276 0 -94 -3 -186 -6 -204 -10 -50 -70 -106 -122 -115
-35 -6 -52 -3 -89 17 -77 39 -83 59 -83 293 0 182 2 203 20 233 43 69 139 94
208 52z"/>
<path d="M2475 2707 c-112 -63 -112 -231 0 -294 149 -84 316 83 232 232 -29
51 -88 85 -147 85 -28 0 -60 -9 -85 -23z"/>
<path d="M69 3487 c-62 -41 -69 -69 -69 -279 l0 -188 548 0 547 0 245 245 245
245 -741 0 -741 0 -34 -23z"/>
<path d="M3780 3265 l245 -245 547 0 548 0 0 188 c0 210 -7 238 -69 279 l-34
23 -741 0 -741 0 245 -245z"/>
<path d="M2230 725 l0 -725 330 0 330 0 0 725 0 725 -330 0 -330 0 0 -725z"/>
</g>
</svg>
