<?xml version="1.0" standalone="no"?>
<!DOCTYPE svg PUBLIC "-//W3C//DTD SVG 20010904//EN"
 "http://www.w3.org/TR/2001/REC-SVG-20010904/DTD/svg10.dtd">
<svg version="1.0" xmlns="http://www.w3.org/2000/svg"
 width="512.000000pt" height="512.000000pt" viewBox="0 0 512.000000 512.000000"
 preserveAspectRatio="xMidYMid meet">

<g transform="translate(0.000000,512.000000) scale(0.100000,-0.100000)"
fill="#fff" stroke="none">
<path d="M2405 5106 c-507 -101 -810 -611 -653 -1096 87 -270 295 -471 575
-557 78 -23 104 -26 233 -26 129 0 155 3 233 26 291 89 495 293 584 584 23 78
26 104 26 233 0 129 -3 155 -26 233 -89 291 -296 498 -584 583 -110 32 -282
41 -388 20z"/>
<path d="M1800 3244 c-124 -60 -275 -157 -355 -228 l-50 -44 25 -10 c383 -146
1130 -422 1142 -422 11 0 913 334 1133 420 l30 12 -49 44 c-74 68 -228 166
-356 228 -63 31 -121 56 -128 56 -7 0 -49 -20 -95 -44 -327 -177 -722 -179
-1062 -6 -54 27 -103 50 -109 50 -6 0 -63 -25 -126 -56z"/>
<path d="M879 2777 c-62 -41 -69 -69 -69 -274 l0 -183 45 0 c211 0 400 -152
444 -358 14 -69 15 -514 0 -584 -16 -77 -74 -180 -129 -232 -82 -77 -205 -126
-315 -126 l-45 0 0 -170 c0 -183 7 -216 51 -257 14 -12 339 -139 784 -306
l760 -285 3 1131 c1 622 -1 1134 -5 1138 -5 4 -322 124 -706 268 -515 192
-710 261 -741 261 -28 0 -55 -8 -77 -23z"/>
<path d="M3415 2535 l-700 -263 -3 -1136 -2 -1136 77 29 c778 288 1453 547
1472 564 44 41 51 74 51 257 l0 170 -45 0 c-211 0 -400 152 -444 358 -15 69
-15 514 0 584 19 88 58 158 124 223 88 87 201 135 320 135 l45 0 0 183 c0 205
-7 233 -69 274 -65 44 -71 42 -826 -242z"/>
<path d="M663 2005 c-102 -31 -176 -96 -222 -195 -22 -46 -26 -69 -26 -140 0
-76 4 -93 33 -152 38 -77 92 -130 171 -166 46 -22 74 -27 162 -30 128 -5 176
13 209 78 18 36 20 58 20 270 0 212 -2 234 -20 270 -31 61 -78 80 -192 79 -51
0 -112 -6 -135 -14z"/>
<path d="M4188 2000 c-23 -12 -46 -36 -58 -60 -18 -36 -20 -59 -20 -270 0
-212 2 -234 20 -270 33 -65 81 -83 210 -78 95 3 112 6 172 36 77 38 130 92
167 171 22 47 26 70 26 141 0 71 -4 94 -26 141 -37 79 -90 133 -167 171 -61
30 -75 33 -177 36 -95 2 -115 -1 -147 -18z"/>
</g>
</svg>
