<?xml version="1.0" standalone="no"?>
<!DOCTYPE svg PUBLIC "-//W3C//DTD SVG 20010904//EN"
 "http://www.w3.org/TR/2001/REC-SVG-20010904/DTD/svg10.dtd">
<svg version="1.0" xmlns="http://www.w3.org/2000/svg"
 width="512.000000pt" height="512.000000pt" viewBox="0 0 512.000000 512.000000"
 preserveAspectRatio="xMidYMid meet">

<g transform="translate(0.000000,512.000000) scale(0.100000,-0.100000)"
fill="rgb(82, 69, 131)" stroke="none">
<path d="M2075 4900 c-253 -121 -589 -281 -747 -356 l-288 -137 0 -358 c0
-198 -2 -359 -5 -359 -3 0 -37 16 -75 35 -38 19 -72 35 -75 35 -3 0 -5 -72 -5
-160 l0 -160 -55 0 c-46 0 -60 -4 -80 -25 l-25 -24 0 -391 0 -391 25 -24 c24
-25 26 -25 215 -25 189 0 191 0 215 25 l25 24 0 391 0 391 -25 24 c-20 21 -34
25 -80 25 l-55 0 0 120 c0 66 2 120 5 120 3 0 91 -43 195 -95 104 -52 191 -95
192 -95 2 0 4 165 6 368 3 434 5 441 87 530 30 33 80 72 112 89 318 168 1192
203 1673 67 134 -38 219 -85 284 -154 83 -91 85 -97 88 -532 2 -203 4 -368 6
-368 1 0 227 112 501 250 309 154 505 258 515 272 45 63 11 98 -184 188 -85
40 -292 138 -460 217 -1205 573 -1484 703 -1503 702 -12 0 -229 -99 -482 -219z"/>
<path d="M2290 4459 c-338 -24 -588 -95 -658 -188 l-27 -34 -7 -336 c-7 -378
-2 -425 55 -546 19 -38 55 -95 81 -126 62 -75 61 -93 -8 -113 -71 -21 -146
-88 -182 -164 -54 -113 -32 -255 55 -355 39 -44 119 -84 186 -93 49 -6 50 -7
73 -59 81 -184 258 -349 452 -421 233 -87 495 -66 704 58 132 78 278 242 332
371 18 43 21 45 68 52 109 14 188 71 237 171 40 80 45 166 15 254 -28 79 -113
163 -189 185 -55 16 -57 17 -57 51 0 20 -5 45 -11 56 -9 16 -7 26 9 47 31 43
69 122 88 186 16 54 18 97 15 410 -3 385 -4 394 -65 439 -78 59 -186 94 -381
126 -228 37 -521 48 -785 29z m547 -630 c237 -20 469 -71 511 -113 21 -21 27
-105 12 -179 -16 -84 -52 -155 -107 -217 l-46 -51 -221 3 c-215 3 -222 4 -278
30 -122 57 -200 161 -232 310 -6 27 -49 58 -80 58 -8 0 -27 -10 -42 -23 -21
-19 -29 -36 -36 -88 -16 -118 -77 -207 -180 -260 -32 -17 -65 -24 -134 -27
l-90 -4 -47 51 c-73 83 -117 196 -117 306 0 67 13 91 64 114 90 39 310 81 501
94 120 8 404 6 522 -4z m-1054 -1021 c4 -154 2 -159 -56 -108 -76 67 -68 199
16 250 38 24 35 35 40 -142z m1712 108 c47 -71 37 -164 -21 -216 -49 -43 -68
-40 -60 8 3 20 6 88 6 150 l0 113 30 -16 c16 -8 37 -26 45 -39z"/>
<path d="M655 4225 c-121 -57 -228 -114 -237 -126 -22 -26 -23 -58 -2 -87 15
-21 451 -248 460 -239 2 2 3 128 2 280 l-3 277 -220 -105z"/>
<path d="M2372 1723 l188 -188 185 185 c101 101 183 185 181 187 -1 2 -29 -6
-62 -17 -185 -64 -423 -64 -608 0 -33 11 -62 20 -65 20 -3 0 78 -84 181 -187z"/>
<path d="M1823 1697 c-128 -128 -143 -146 -143 -177 0 -32 23 -58 297 -332
164 -164 306 -301 316 -304 38 -12 74 10 169 104 l98 96 105 -103 c103 -102
106 -104 142 -98 33 6 74 43 335 305 275 274 298 300 298 332 0 31 -15 49
-143 177 -128 128 -146 143 -177 143 -31 0 -56 -22 -297 -262 l-263 -262 -263
262 c-241 240 -266 262 -297 262 -31 0 -49 -15 -177 -143z"/>
<path d="M1409 1516 c-320 -121 -590 -408 -702 -746 -51 -150 -59 -211 -64
-472 l-5 -247 25 -25 26 -26 336 0 335 0 0 215 c0 216 0 216 25 240 32 33 78
33 110 0 25 -24 25 -24 25 -240 l0 -215 1040 0 1040 0 0 215 c0 216 0 216 25
240 32 33 78 33 110 0 25 -24 25 -24 25 -240 l0 -215 335 0 336 0 26 26 25 25
-5 247 c-6 306 -29 421 -122 615 -90 190 -276 399 -449 506 -82 51 -214 111
-278 126 -26 7 -28 5 -28 -25 0 -90 -6 -97 -344 -437 -179 -181 -335 -330
-355 -339 -96 -46 -186 -27 -278 59 l-64 60 -52 -51 c-93 -92 -186 -114 -282
-68 -38 18 -123 97 -362 337 -329 330 -343 349 -343 435 0 21 -5 34 -12 34 -7
-1 -52 -15 -99 -34z"/>
</g>
</svg>
