<?xml version="1.0" standalone="no"?>
<!DOCTYPE svg PUBLIC "-//W3C//DTD SVG 20010904//EN"
 "http://www.w3.org/TR/2001/REC-SVG-20010904/DTD/svg10.dtd">
<svg version="1.0" xmlns="http://www.w3.org/2000/svg"
 width="512.000000pt" height="512.000000pt" viewBox="0 0 512.000000 512.000000"
 preserveAspectRatio="xMidYMid meet">

<g transform="translate(0.000000,512.000000) scale(0.100000,-0.100000)"
fill="rgb(255, 184, 0)" stroke="none">
<path d="M2425 4309 c-221 -43 -405 -163 -525 -340 -97 -141 -134 -268 -134
-449 -1 -225 75 -410 229 -565 154 -154 340 -230 565 -230 225 0 411 76 565
230 154 154 230 340 230 565 0 174 -36 297 -125 433 -112 173 -271 287 -480
344 -68 18 -258 25 -325 12z"/>
<path d="M2100 2553 c-283 -30 -551 -161 -761 -372 -186 -185 -299 -393 -355
-651 -15 -71 -19 -131 -19 -356 l0 -270 29 -38 c52 -69 20 -66 798 -66 l703 0
-277 278 c-152 152 -282 290 -288 305 -5 16 -10 40 -10 55 0 15 81 270 180
567 99 297 180 543 180 547 0 8 -112 8 -180 1z"/>
<path d="M2840 2552 c0 -4 81 -250 180 -547 99 -297 180 -552 180 -567 0 -15
-5 -39 -10 -55 -6 -15 -136 -153 -288 -306 l-277 -277 717 2 c706 3 717 3 744
24 68 50 69 53 72 301 4 265 -11 389 -63 547 -65 201 -160 353 -314 507 -157
157 -301 246 -504 314 -56 19 -150 41 -208 49 -113 17 -229 21 -229 8z"/>
<path d="M2409 1921 l-147 -439 149 -148 149 -149 149 149 149 148 -147 439
c-80 242 -148 439 -151 439 -3 0 -71 -197 -151 -439z"/>
</g>
</svg>
